<svg width="160" height="25" viewBox="0 0 160 25" fill="none" xmlns="http://www.w3.org/2000/svg">
<path d="M160 25H150V15H145V25H135V15H137.5V10H135V0H145V10H150V0H160V10H157.5V15H160V25Z" fill="#FFB4B4"/>
<path d="M130 22.5H127.5V25H107.5V22.5H105V2.5H107.5V0H127.5V2.5H130V22.5ZM120 20V5H115V20H120Z" fill="#FFB4B4"/>
<path d="M100 22.5H97.5V25H75V0H97.5V2.5H100V10H97.5V15H100V22.5ZM90 10V5H85V10H90ZM90 20V15H85V20H90Z" fill="#FFB4B4"/>
<path d="M70 25H47.5V22.5H45V2.5H47.5V0H70V5H55V20H60V15H57.5V10H70V25Z" fill="#FFB4B4"/>
<path d="M40 25H30V0H40V25Z" fill="#FFB4B4"/>
<path d="M25 22.5H22.5V25H0V0H22.5V2.5H25V10H22.5V15H25V22.5ZM15 10V5H10V10H15ZM15 20V15H10V20H15Z" fill="#FFB4B4"/>
</svg>
